<svg width="549" height="556" viewBox="0 0 549 556" fill="none" xmlns="http://www.w3.org/2000/svg">
  <path fill-rule="evenodd" clip-rule="evenodd" d="M278.31 477.67C168.03 477.67 78.3101 387.95 78.3101 277.67C78.3101 167.39 168.03 77.67 278.31 77.67C388.59 77.67 478.31 167.39 478.31 277.67C478.31 387.95 388.59 477.67 278.31 477.67ZM278.31 97.67C179.06 97.67 98.3101 178.41 98.3101 277.67C98.3101 376.92 179.06 457.67 278.31 457.67C377.56 457.67 458.31 376.92 458.31 277.67C458.31 178.41 377.56 97.67 278.31 97.67Z" fill="#79D3FE"/>
  <path d="M105.7 415.69C75.4201 377.87 57.3101 329.88 57.3101 277.67C57.3101 155.61 156.26 56.67 278.31 56.67C400.37 56.67 499.31 155.61 499.31 277.67" stroke="#79D3FE" stroke-width="12"/>
  <path d="M524.91 277.67C524.91 413.86 414.51 524.27 278.31 524.27" stroke="white" stroke-width="12"/>
  <path d="M31.71 277.67C31.71 141.47 142.12 31.06 278.31 31.06" stroke="#FE61CA" stroke-width="12"/>
  <path d="M355.7 538.15C341.15 542.47 326.09 545.6 310.64 547.43" stroke="#0197F8" stroke-width="12"/>
  <path d="M451.8 68.6C495.89 105.22 528.21 155.53 542.24 213.01" stroke="#0197F8" stroke-width="12"/>
  <path d="M170.82 28.1C203.78 13.88 240.13 6 278.31 6C309.57 6 339.59 11.28 367.54 20.99" stroke="#79D3FE" stroke-width="12"/>
  <path d="M278.31 549.33C128.27 549.33 6.65002 427.7 6.65002 277.67C6.65002 233.27 17.29 191.37 36.17 154.36" stroke="#0197F8" stroke-width="12"/>
  <path d="M361.7 437.13C336.76 450.23 308.39 457.67 278.31 457.67C179.06 457.67 98.3101 376.92 98.3101 277.67C98.3101 255.06 102.52 233.42 110.17 213.47L91.4801 206.33C82.9901 228.5 78.3101 252.55 78.3101 277.67C78.3101 387.95 168.03 477.67 278.31 477.67C311.73 477.67 343.25 469.4 370.97 454.85L361.7 437.13Z" fill="#535FE9"/>
  <path d="M458.31 277.67C458.31 346.84 419.08 407.01 361.71 437.14L370.97 454.85C370.98 454.85 370.99 454.85 370.99 454.85C434.73 421.38 478.31 354.52 478.31 277.67C478.31 167.39 388.59 77.67 278.31 77.67V97.67C377.56 97.67 458.31 178.41 458.31 277.67Z" fill="#0197F8"/>
  <path d="M274.54 140.12V407.18L259.81 415.68L211.12 401.37L178.58 361.85V352.09L159.99 317.23V277.9L171.61 235.88L182.77 224.25V207.99L192.53 196.36V177.3L210.9 166.7V156.39L232.51 148.48L247.81 139.65L274.54 140.12Z" stroke="#FE61CA" stroke-width="4" stroke-linejoin="round"/>
  <path d="M274.54 217.28H245.99" stroke="#FE61CA" stroke-width="4" stroke-linejoin="round"/>
  <path d="M257.56 240.53L230.6 275.31" stroke="#FE61CA" stroke-width="4" stroke-linejoin="round"/>
  <path d="M210.9 166.7H226.93" stroke="#FE61CA" stroke-width="4" stroke-linejoin="round"/>
  <path d="M166.71 253.6H180.91L199.47 272.16" stroke="#FE61CA" stroke-width="4" stroke-linejoin="round"/>
  <path d="M274.54 315.83H235.76V333.5L254.99 352.72" stroke="#FE61CA" stroke-width="4" stroke-linejoin="round"/>
  <path d="M178.58 352.09L193.69 336.98" stroke="#FE61CA" stroke-width="4" stroke-linejoin="round"/>
  <path d="M192.53 196.36H221.7V235.99H245.99" stroke="#FE61CA" stroke-width="4" stroke-linejoin="round"/>
  <path d="M211.12 401.37V373.47H235.76" stroke="#FE61CA" stroke-width="4" stroke-linejoin="round"/>
  <path d="M203.77 252.62L218.18 267.04L183.47 301.74L159.99 277.9" stroke="#FE61CA" stroke-width="4" stroke-linejoin="round"/>
  <path d="M235.76 182.65H253.78L274.27 162.16" stroke="#FE61CA" stroke-width="4" stroke-linejoin="round"/>
  <path d="M255.15 331.17L274.61 350.63" stroke="#FE61CA" stroke-width="4" stroke-linejoin="round"/>
  <path d="M237.39 391.84H261.1V381.38" stroke="#FE61CA" stroke-width="4" stroke-linejoin="round"/>
  <path d="M181.14 331.23L196.53 315.83L211.48 330.78" stroke="#FE61CA" stroke-width="4" stroke-linejoin="round"/>
  <path d="M213.43 312.52L233.4 292.55H274.27" stroke="#FE61CA" stroke-width="4" stroke-linejoin="round"/>
  <path d="M199.47 363.94L217.73 345.68L229.69 357.64" stroke="#FE61CA" stroke-width="4" stroke-linejoin="round"/>
  <path d="M182.77 224.25L190.15 231.63L206.16 215.63" stroke="#FE61CA" stroke-width="4" stroke-linejoin="round"/>
  <path d="M257.77 264.23L266.3 272.77H274.27" stroke="#FE61CA" stroke-width="4" stroke-linejoin="round"/>
  <path d="M231.48 182.65C231.48 185.01 233.4 186.93 235.76 186.93C238.13 186.93 240.04 185.01 240.04 182.65C240.04 180.29 238.13 178.37 235.76 178.37C233.4 178.37 231.48 180.29 231.48 182.65Z" fill="#FE61CA"/>
  <path d="M241.71 217.28C241.71 219.65 243.62 221.56 245.99 221.56C248.35 221.56 250.27 219.65 250.27 217.28C250.27 214.92 248.35 213 245.99 213C243.62 213 241.71 214.92 241.71 217.28Z" fill="#FE61CA"/>
  <path d="M241.71 235.99C241.71 238.36 243.62 240.27 245.99 240.27C248.35 240.27 250.27 238.36 250.27 235.99C250.27 233.63 248.35 231.71 245.99 231.71C243.62 231.71 241.71 233.63 241.71 235.99Z" fill="#FE61CA"/>
  <path d="M201.87 215.63C201.87 217.99 203.79 219.91 206.16 219.91C208.52 219.91 210.44 217.99 210.44 215.63C210.44 213.26 208.52 211.34 206.16 211.34C203.79 211.34 201.87 213.26 201.87 215.63Z" fill="#FE61CA"/>
  <path d="M253.28 240.53C253.28 242.89 255.2 244.81 257.56 244.81C259.93 244.81 261.84 242.89 261.84 240.53C261.84 238.16 259.93 236.24 257.56 236.24C255.2 236.24 253.28 238.16 253.28 240.53Z" fill="#FE61CA"/>
  <path d="M226.32 275.31C226.32 277.68 228.24 279.59 230.6 279.59C232.96 279.59 234.88 277.68 234.88 275.31C234.88 272.95 232.96 271.03 230.6 271.03C228.24 271.03 226.32 272.95 226.32 275.31Z" fill="#FE61CA"/>
  <path d="M209.15 312.52C209.15 314.89 211.07 316.8 213.43 316.8C215.8 316.8 217.72 314.89 217.72 312.52C217.72 310.16 215.8 308.24 213.43 308.24C211.07 308.24 209.15 310.16 209.15 312.52Z" fill="#FE61CA"/>
  <path d="M176.85 331.23C176.85 333.59 178.77 335.51 181.14 335.51C183.5 335.51 185.42 333.59 185.42 331.23C185.42 328.86 183.5 326.95 181.14 326.95C178.77 326.95 176.85 328.86 176.85 331.23Z" fill="#FE61CA"/>
  <path d="M207.2 331.17C207.2 333.54 209.11 335.45 211.48 335.45C213.84 335.45 215.76 333.54 215.76 331.17C215.76 328.81 213.84 326.89 211.48 326.89C209.11 326.89 207.2 328.81 207.2 331.17Z" fill="#FE61CA"/>
  <path d="M195.19 363.94C195.19 366.31 197.11 368.23 199.47 368.23C201.84 368.23 203.76 366.31 203.76 363.94C203.76 361.58 201.84 359.66 199.47 359.66C197.11 359.66 195.19 361.58 195.19 363.94Z" fill="#FE61CA"/>
  <path d="M225.4 357.61C225.4 359.98 227.32 361.89 229.69 361.89C232.05 361.89 233.97 359.98 233.97 357.61C233.97 355.25 232.05 353.33 229.69 353.33C227.32 353.33 225.4 355.25 225.4 357.61Z" fill="#FE61CA"/>
  <path d="M250.87 352.72C250.87 355.09 252.79 357 255.15 357C257.52 357 259.43 355.09 259.43 352.72C259.43 350.36 257.52 348.44 255.15 348.44C252.79 348.44 250.87 350.36 250.87 352.72Z" fill="#FE61CA"/>
  <path d="M231.48 373.47C231.48 375.84 233.4 377.76 235.76 377.76C238.13 377.76 240.04 375.84 240.04 373.47C240.04 371.11 238.13 369.19 235.76 369.19C233.4 369.19 231.48 371.11 231.48 373.47Z" fill="#FE61CA"/>
  <path d="M233.11 391.84C233.11 394.2 235.02 396.12 237.39 396.12C239.75 396.12 241.67 394.2 241.67 391.84C241.67 389.47 239.75 387.55 237.39 387.55C235.02 387.55 233.11 389.47 233.11 391.84Z" fill="#FE61CA"/>
  <path d="M256.82 381.38C256.82 383.74 258.73 385.66 261.1 385.66C263.46 385.66 265.38 383.74 265.38 381.38C265.38 379.01 263.46 377.1 261.1 377.1C258.73 377.1 256.82 379.01 256.82 381.38Z" fill="#FE61CA"/>
  <path d="M250.87 331.23C250.87 333.59 252.79 335.51 255.15 335.51C257.52 335.51 259.43 333.59 259.43 331.23C259.43 328.86 257.52 326.95 255.15 326.95C252.79 326.95 250.87 328.86 250.87 331.23Z" fill="#FE61CA"/>
  <path d="M189.41 336.98C189.41 339.35 191.33 341.26 193.69 341.26C196.06 341.26 197.97 339.35 197.97 336.98C197.97 334.62 196.06 332.7 193.69 332.7C191.33 332.7 189.41 334.62 189.41 336.98Z" fill="#FE61CA"/>
  <path d="M199.47 252.62C199.47 254.99 201.39 256.91 203.76 256.91C206.12 256.91 208.04 254.99 208.04 252.62C208.04 250.26 206.12 248.34 203.76 248.34C201.39 248.34 199.47 250.26 199.47 252.62Z" fill="#FE61CA"/>
  <path d="M195.19 272.16C195.19 274.53 197.11 276.45 199.47 276.45C201.84 276.45 203.76 274.53 203.76 272.16C203.76 269.8 201.84 267.88 199.47 267.88C197.11 267.88 195.19 269.8 195.19 272.16Z" fill="#FE61CA"/>
  <path d="M253.28 264.23C253.28 266.6 255.2 268.51 257.56 268.51C259.93 268.51 261.84 266.6 261.84 264.23C261.84 261.87 259.93 259.95 257.56 259.95C255.2 259.95 253.28 261.87 253.28 264.23Z" fill="#FE61CA"/>
  <path d="M222.65 166.7C222.65 169.06 224.57 170.98 226.93 170.98C229.29 170.98 231.21 169.06 231.21 166.7C231.21 164.33 229.29 162.41 226.93 162.41C224.57 162.41 222.65 164.33 222.65 166.7Z" fill="#FE61CA"/>
  <path d="M282.12 140.12V407.18L296.85 415.68L345.53 401.37L378.07 361.85V352.09L396.67 317.23V277.9L385.05 235.88L373.89 224.25V207.99L364.13 196.36V177.3L345.75 166.7V156.39L324.15 148.48L308.85 139.65L282.12 140.12Z" stroke="#FE61CA" stroke-width="4" stroke-linejoin="round"/>
  <path d="M282.12 217.28H310.67" stroke="#FE61CA" stroke-width="4" stroke-linejoin="round"/>
  <path d="M299.1 240.53L326.06 275.31" stroke="#FE61CA" stroke-width="4" stroke-linejoin="round"/>
  <path d="M345.75 166.7H329.73" stroke="#FE61CA" stroke-width="4" stroke-linejoin="round"/>
  <path d="M389.95 253.6H375.75L357.18 272.16" stroke="#FE61CA" stroke-width="4" stroke-linejoin="round"/>
  <path d="M282.12 315.83H320.9V333.5L301.67 352.72" stroke="#FE61CA" stroke-width="4" stroke-linejoin="round"/>
  <path d="M378.07 352.09L362.96 336.98" stroke="#FE61CA" stroke-width="4" stroke-linejoin="round"/>
  <path d="M364.13 196.36H334.96V235.99H310.67" stroke="#FE61CA" stroke-width="4" stroke-linejoin="round"/>
  <path d="M345.53 401.37V373.47H320.9" stroke="#FE61CA" stroke-width="4" stroke-linejoin="round"/>
  <path d="M352.89 252.62L338.48 267.04L373.18 301.74L396.67 277.9" stroke="#FE61CA" stroke-width="4" stroke-linejoin="round"/>
  <path d="M320.9 182.65H302.88L282.39 162.16" stroke="#FE61CA" stroke-width="4" stroke-linejoin="round"/>
  <path d="M301.51 331.17L282.05 350.63" stroke="#FE61CA" stroke-width="4" stroke-linejoin="round"/>
  <path d="M319.27 391.84H295.56V381.38" stroke="#FE61CA" stroke-width="4" stroke-linejoin="round"/>
  <path d="M375.52 331.23L360.12 315.83L345.18 330.78" stroke="#FE61CA" stroke-width="4" stroke-linejoin="round"/>
  <path d="M343.22 312.52L323.25 292.55H282.39" stroke="#FE61CA" stroke-width="4" stroke-linejoin="round"/>
  <path d="M357.18 363.94L338.92 345.68L326.97 357.64" stroke="#FE61CA" stroke-width="4" stroke-linejoin="round"/>
  <path d="M373.89 224.25L366.51 231.63L350.5 215.63" stroke="#FE61CA" stroke-width="4" stroke-linejoin="round"/>
  <path d="M298.89 264.23L290.35 272.77H282.39" stroke="#FE61CA" stroke-width="4" stroke-linejoin="round"/>
  <path d="M325.18 182.65C325.18 185.01 323.26 186.93 320.9 186.93C318.53 186.93 316.61 185.01 316.61 182.65C316.61 180.29 318.53 178.37 320.9 178.37C323.26 178.37 325.18 180.29 325.18 182.65Z" fill="#FE61CA"/>
  <path d="M314.95 217.28C314.95 219.65 313.03 221.56 310.67 221.56C308.3 221.56 306.39 219.65 306.39 217.28C306.39 214.92 308.3 213 310.67 213C313.03 213 314.95 214.92 314.95 217.28Z" fill="#FE61CA"/>
  <path d="M314.95 235.99C314.95 238.36 313.03 240.27 310.67 240.27C308.3 240.27 306.39 238.36 306.39 235.99C306.39 233.63 308.3 231.71 310.67 231.71C313.03 231.71 314.95 233.63 314.95 235.99Z" fill="#FE61CA"/>
  <path d="M354.78 215.63C354.78 217.99 352.87 219.91 350.5 219.91C348.14 219.91 346.22 217.99 346.22 215.63C346.22 213.26 348.14 211.34 350.5 211.34C352.87 211.34 354.78 213.26 354.78 215.63Z" fill="#FE61CA"/>
  <path d="M303.38 240.53C303.38 242.89 301.46 244.81 299.1 244.81C296.73 244.81 294.81 242.89 294.81 240.53C294.81 238.16 296.73 236.24 299.1 236.24C301.46 236.24 303.38 238.16 303.38 240.53Z" fill="#FE61CA"/>
  <path d="M330.34 275.31C330.34 277.68 328.42 279.59 326.06 279.59C323.69 279.59 321.78 277.68 321.78 275.31C321.78 272.95 323.69 271.03 326.06 271.03C328.42 271.03 330.34 272.95 330.34 275.31Z" fill="#FE61CA"/>
  <path d="M347.5 312.52C347.5 314.89 345.59 316.8 343.22 316.8C340.86 316.8 338.94 314.89 338.94 312.52C338.94 310.16 340.86 308.24 343.22 308.24C345.59 308.24 347.5 310.16 347.5 312.52Z" fill="#FE61CA"/>
  <path d="M379.8 331.23C379.8 333.59 377.89 335.51 375.52 335.51C373.16 335.51 371.24 333.59 371.24 331.23C371.24 328.86 373.16 326.95 375.52 326.95C377.89 326.95 379.8 328.86 379.8 331.23Z" fill="#FE61CA"/>
  <path d="M349.46 331.17C349.46 333.54 347.54 335.45 345.18 335.45C342.81 335.45 340.9 333.54 340.9 331.17C340.9 328.81 342.81 326.89 345.18 326.89C347.54 326.89 349.46 328.81 349.46 331.17Z" fill="#FE61CA"/>
  <path d="M361.46 363.94C361.46 366.31 359.55 368.23 357.18 368.23C354.82 368.23 352.9 366.31 352.9 363.94C352.9 361.58 354.82 359.66 357.18 359.66C359.55 359.66 361.46 361.58 361.46 363.94Z" fill="#FE61CA"/>
  <path d="M331.25 357.61C331.25 359.98 329.34 361.89 326.97 361.89C324.61 361.89 322.69 359.98 322.69 357.61C322.69 355.25 324.61 353.33 326.97 353.33C329.34 353.33 331.25 355.25 331.25 357.61Z" fill="#FE61CA"/>
  <path d="M305.79 352.72C305.79 355.09 303.87 357 301.51 357C299.14 357 297.22 355.09 297.22 352.72C297.22 350.36 299.14 348.44 301.51 348.44C303.87 348.44 305.79 350.36 305.79 352.72Z" fill="#FE61CA"/>
  <path d="M325.18 373.47C325.18 375.84 323.26 377.76 320.9 377.76C318.53 377.76 316.61 375.84 316.61 373.47C316.61 371.11 318.53 369.19 320.9 369.19C323.26 369.19 325.18 371.11 325.18 373.47Z" fill="#FE61CA"/>
  <path d="M323.55 391.84C323.55 394.2 321.63 396.12 319.27 396.12C316.9 396.12 314.99 394.2 314.99 391.84C314.99 389.47 316.9 387.55 319.27 387.55C321.63 387.55 323.55 389.47 323.55 391.84Z" fill="#FE61CA"/>
  <path d="M299.84 381.38C299.84 383.74 297.92 385.66 295.56 385.66C293.2 385.66 291.28 383.74 291.28 381.38C291.28 379.01 293.2 377.1 295.56 377.1C297.92 377.1 299.84 379.01 299.84 381.38Z" fill="#FE61CA"/>
  <path d="M305.79 331.23C305.79 333.59 303.87 335.51 301.51 335.51C299.14 335.51 297.22 333.59 297.22 331.23C297.22 328.86 299.14 326.95 301.51 326.95C303.87 326.95 305.79 328.86 305.79 331.23Z" fill="#FE61CA"/>
  <path d="M367.25 336.98C367.25 339.35 365.33 341.26 362.96 341.26C360.6 341.26 358.68 339.35 358.68 336.98C358.68 334.62 360.6 332.7 362.96 332.7C365.33 332.7 367.25 334.62 367.25 336.98Z" fill="#FE61CA"/>
  <path d="M357.18 252.62C357.18 254.99 355.27 256.91 352.9 256.91C350.54 256.91 348.62 254.99 348.62 252.62C348.62 250.26 350.54 248.34 352.9 248.34C355.27 248.34 357.18 250.26 357.18 252.62Z" fill="#FE61CA"/>
  <path d="M361.46 272.16C361.46 274.53 359.55 276.45 357.18 276.45C354.82 276.45 352.9 274.53 352.9 272.16C352.9 269.8 354.82 267.88 357.18 267.88C359.55 267.88 361.46 269.8 361.46 272.16Z" fill="#FE61CA"/>
  <path d="M303.38 264.23C303.38 266.6 301.46 268.51 299.1 268.51C296.73 268.51 294.81 266.6 294.81 264.23C294.81 261.87 296.73 259.95 299.1 259.95C301.46 259.95 303.38 261.87 303.38 264.23Z" fill="#FE61CA"/>
  <path d="M334.01 166.7C334.01 169.06 332.09 170.98 329.73 170.98C327.36 170.98 325.45 169.06 325.45 166.7C325.45 164.33 327.36 162.41 329.73 162.41C332.09 162.41 334.01 164.33 334.01 166.7Z" fill="#FE61CA"/>
</svg>
