<svg id="svg" version="1.1" xmlns="http://www.w3.org/2000/svg" xmlns:xlink="http://www.w3.org/1999/xlink" width="400" height="108.203125" viewBox="0, 0, 400,108.203125"><g id="svgg"><path id="path0" d="M118.847 22.134 C 118.718 22.177,118.667 31.419,118.667 54.408 L 118.667 86.621 119.440 86.727 C 119.865 86.786,123.653 86.833,127.857 86.833 L 135.500 86.833 135.523 72.125 C 135.536 64.035,135.592 55.558,135.648 53.286 L 135.750 49.155 136.184 49.952 C 137.433 52.248,137.731 52.771,137.915 53.000 C 138.025 53.137,138.165 53.362,138.226 53.500 C 138.286 53.637,138.524 54.050,138.754 54.417 C 138.984 54.783,139.245 55.233,139.333 55.417 C 139.422 55.600,139.679 56.050,139.905 56.417 C 140.347 57.134,140.488 57.380,141.331 58.917 C 141.633 59.467,141.982 60.035,142.107 60.180 C 142.231 60.325,142.333 60.525,142.333 60.626 C 142.333 60.727,142.428 60.909,142.544 61.030 C 142.659 61.151,142.847 61.438,142.962 61.667 C 143.076 61.896,143.330 62.346,143.526 62.667 C 143.721 62.987,144.106 63.663,144.381 64.167 C 144.655 64.671,144.982 65.202,145.107 65.346 C 145.231 65.491,145.333 65.652,145.333 65.705 C 145.333 65.787,146.760 68.278,147.733 69.892 C 147.906 70.181,148.273 70.829,148.548 71.333 C 148.822 71.837,149.149 72.368,149.273 72.513 C 149.398 72.658,149.500 72.826,149.500 72.888 C 149.500 72.949,150.119 74.052,150.875 75.338 C 151.631 76.625,152.451 78.055,152.696 78.515 C 152.941 78.975,153.211 79.442,153.297 79.551 C 153.382 79.660,153.688 80.181,153.976 80.708 C 154.481 81.631,155.191 82.912,155.909 84.192 C 156.096 84.527,156.488 85.209,156.778 85.707 L 157.306 86.613 159.945 86.723 C 161.396 86.783,165.365 86.832,168.765 86.833 L 174.948 86.833 175.057 83.958 C 175.117 82.377,175.166 67.839,175.166 51.652 L 175.167 22.220 166.886 22.119 C 162.332 22.063,158.545 22.056,158.470 22.102 C 158.395 22.148,158.333 30.667,158.333 41.032 C 158.333 61.998,158.425 60.402,157.338 58.411 C 157.139 58.047,156.651 57.225,156.253 56.583 C 155.855 55.942,155.327 55.042,155.079 54.583 C 154.832 54.125,154.537 53.637,154.424 53.500 C 154.311 53.362,153.963 52.800,153.651 52.250 C 153.339 51.700,153.008 51.120,152.917 50.962 C 150.616 46.986,149.586 45.234,149.510 45.167 C 149.459 45.121,149.243 44.746,149.032 44.333 C 148.820 43.921,148.440 43.246,148.187 42.833 C 147.934 42.421,147.403 41.483,147.007 40.750 C 146.612 40.017,146.204 39.304,146.102 39.167 C 146.000 39.029,145.810 38.729,145.680 38.500 C 143.749 35.104,142.812 33.452,142.466 32.833 C 142.235 32.421,141.886 31.821,141.689 31.500 C 141.493 31.179,141.217 30.692,141.078 30.417 C 140.938 30.142,140.665 29.654,140.470 29.333 C 139.938 28.455,139.015 26.814,138.735 26.250 C 138.598 25.975,138.309 25.450,138.093 25.083 C 137.877 24.717,137.458 23.942,137.163 23.362 C 136.868 22.782,136.542 22.280,136.438 22.247 C 136.188 22.167,119.079 22.057,118.847 22.134 M196.917 36.934 C 196.733 36.972,195.983 37.119,195.250 37.260 C 192.898 37.715,192.224 37.965,189.707 39.315 C 189.215 39.578,187.000 41.678,187.000 41.881 C 187.000 41.954,186.861 42.163,186.691 42.346 C 186.329 42.734,185.167 45.061,185.167 45.397 C 185.167 45.523,185.045 45.916,184.897 46.271 C 183.759 48.991,183.786 75.070,184.930 78.833 C 187.171 86.203,192.854 88.508,206.500 87.583 C 208.471 87.450,210.983 87.340,212.083 87.339 C 216.531 87.337,228.625 86.327,229.864 85.854 C 230.229 85.715,230.335 85.537,230.446 84.883 C 230.624 83.838,230.623 76.906,230.445 75.458 L 230.307 74.333 228.862 74.329 C 228.067 74.326,225.167 74.474,222.417 74.658 C 203.717 75.909,202.584 75.887,201.240 74.248 C 200.401 73.224,199.993 69.955,200.585 68.997 C 200.650 68.892,206.335 68.833,216.483 68.833 L 232.281 68.833 232.390 65.708 C 232.646 58.368,232.357 48.596,231.844 47.270 C 231.742 47.006,231.582 46.443,231.489 46.020 C 230.554 41.761,226.887 38.503,221.667 37.293 C 220.184 36.949,198.378 36.633,196.917 36.934 M240.474 39.875 C 240.378 47.539,240.406 72.949,240.513 74.583 C 241.116 83.787,245.883 87.622,256.833 87.711 C 260.871 87.744,264.162 87.144,268.500 85.583 C 269.350 85.277,272.164 83.906,273.417 83.187 C 274.986 82.287,275.055 82.378,275.762 86.292 L 275.860 86.833 283.069 86.833 L 290.279 86.833 290.389 75.708 C 290.450 69.590,290.500 58.565,290.500 51.208 L 290.500 37.833 282.250 37.833 L 274.000 37.833 273.999 52.958 C 273.999 68.507,273.920 72.328,273.598 72.411 C 273.498 72.436,272.967 72.590,272.417 72.751 C 266.975 74.350,259.150 74.546,257.609 73.122 C 256.653 72.239,256.647 72.159,256.661 61.618 C 256.669 56.303,256.719 51.883,256.773 51.796 C 256.828 51.708,256.817 48.530,256.749 44.735 L 256.625 37.833 248.563 37.833 L 240.500 37.833 240.474 39.875 M53.167 42.277 C 47.050 43.535,43.650 46.514,42.735 51.417 C 41.116 60.094,48.220 67.562,56.290 65.667 C 57.841 65.303,60.667 64.101,60.667 63.806 C 60.667 63.729,60.768 63.667,60.893 63.667 C 61.017 63.667,61.752 63.010,62.525 62.208 C 68.730 55.772,65.813 45.116,57.170 42.644 C 56.053 42.324,53.898 42.127,53.167 42.277 M214.250 49.083 C 215.925 49.921,216.384 51.763,215.943 55.875 L 215.805 57.167 208.177 57.167 L 200.548 57.167 200.442 56.042 C 200.019 51.560,200.525 49.797,202.450 49.050 C 203.847 48.508,213.152 48.534,214.250 49.083 " stroke="none" fill="#049cfc" fill-rule="evenodd"></path><path id="path1" d="M45.402 0.542 C 43.779 1.638,43.211 3.409,43.391 6.822 C 43.503 8.953,43.894 10.531,45.253 14.333 C 45.532 15.116,46.758 17.645,47.753 19.493 C 48.483 20.849,48.479 21.088,47.708 21.789 C 46.438 22.944,42.595 25.231,41.177 25.675 C 40.942 25.749,40.114 26.039,39.336 26.320 C 35.915 27.559,35.837 27.506,34.835 23.250 C 33.791 18.818,32.957 17.064,31.370 15.964 C 30.329 15.242,28.057 15.148,27.187 15.792 C 26.908 15.998,26.632 16.167,26.572 16.167 C 26.409 16.167,25.796 16.968,25.375 17.731 C 24.643 19.060,24.877 20.486,26.434 24.169 C 26.570 24.491,26.778 25.222,26.896 25.794 L 27.110 26.833 26.501 26.833 C 25.905 26.833,24.768 26.478,22.417 25.557 C 19.783 24.525,16.863 25.038,16.103 26.667 C 16.039 26.804,15.878 27.104,15.746 27.333 C 14.656 29.218,15.976 32.020,18.500 33.178 C 18.729 33.283,19.043 33.434,19.198 33.513 C 19.913 33.878,22.318 34.559,25.708 35.357 C 26.978 35.656,27.333 35.802,27.333 36.023 C 27.333 36.484,26.669 39.145,26.388 39.807 C 25.835 41.113,25.606 41.613,25.199 42.417 C 24.582 43.630,24.473 43.819,23.875 44.699 C 23.577 45.138,23.333 45.536,23.333 45.584 C 23.333 45.881,21.242 48.243,21.016 48.201 C 20.870 48.174,19.662 47.619,18.333 46.967 C 15.649 45.651,14.896 45.307,13.917 44.952 C 5.727 41.981,-0.000 42.846,-0.000 47.055 C -0.000 49.676,1.753 51.211,5.250 51.652 C 7.664 51.956,9.880 52.482,11.731 53.189 C 12.178 53.360,12.633 53.500,12.740 53.500 C 12.848 53.500,13.075 53.601,13.244 53.725 C 14.079 54.336,8.665 56.030,4.392 56.495 C 2.750 56.674,1.893 57.081,1.145 58.035 C 0.838 58.428,0.454 58.895,0.293 59.073 C -0.164 59.577,-0.120 61.628,0.361 62.269 C 2.569 65.210,5.375 65.611,11.250 63.825 C 13.865 63.030,16.234 62.073,18.520 60.889 C 19.196 60.538,20.105 60.087,20.539 59.886 L 21.328 59.521 22.886 61.886 C 23.743 63.186,24.495 64.362,24.556 64.500 C 24.618 64.637,24.854 65.050,25.079 65.417 C 26.303 67.405,27.333 70.288,27.333 71.720 L 27.333 72.472 26.458 72.655 C 25.977 72.756,25.171 72.918,24.667 73.016 C 21.796 73.575,20.667 73.925,18.869 74.814 C 17.112 75.683,16.721 76.000,15.977 77.158 C 15.557 77.810,15.500 78.053,15.500 79.190 C 15.500 82.867,18.929 84.288,23.083 82.333 C 23.981 81.910,26.972 81.074,27.096 81.211 C 27.224 81.352,26.523 83.766,25.948 85.167 C 24.122 89.614,25.435 92.667,29.176 92.667 C 31.401 92.667,32.681 91.471,34.087 88.083 C 34.619 86.800,35.667 82.433,35.667 81.498 C 35.667 81.143,35.737 81.045,35.958 81.087 C 36.119 81.118,36.737 81.233,37.333 81.342 C 40.613 81.945,45.742 84.473,47.797 86.499 C 48.563 87.255,48.589 87.489,47.998 88.333 C 47.629 88.862,45.333 93.558,45.333 93.785 C 45.333 93.879,45.192 94.322,45.019 94.769 C 43.536 98.605,42.995 103.907,43.882 105.920 C 45.658 109.954,51.238 108.393,51.745 103.720 C 52.298 98.629,53.595 94.484,54.421 95.170 C 54.978 95.632,55.999 98.528,56.002 99.654 C 56.004 100.611,56.770 104.689,57.085 105.417 C 58.485 108.664,62.382 109.079,64.407 106.197 L 64.913 105.477 64.887 103.152 C 64.856 100.413,64.534 98.710,63.300 94.750 C 62.892 93.440,62.940 93.547,61.237 90.106 L 59.764 87.128 60.507 86.466 C 61.233 85.819,62.919 84.599,63.583 84.239 C 63.767 84.139,64.413 83.789,65.020 83.460 C 66.812 82.488,68.823 81.763,71.116 81.262 C 72.709 80.914,72.667 80.903,72.667 81.673 C 72.667 82.726,73.578 86.441,74.198 87.917 C 75.642 91.352,77.081 92.667,79.397 92.667 C 81.103 92.667,82.041 91.979,82.911 90.090 C 83.544 88.716,83.394 87.705,82.081 84.500 C 81.690 83.547,81.190 81.857,81.173 81.435 C 81.159 81.092,84.427 81.832,85.083 82.322 C 88.742 85.048,93.945 81.845,92.567 77.714 C 92.126 76.390,89.252 74.333,87.844 74.333 C 87.666 74.333,87.482 74.272,87.435 74.197 C 87.326 74.020,84.649 73.273,82.833 72.912 C 80.955 72.538,81.000 72.556,81.000 72.199 C 81.000 69.701,84.225 62.623,86.388 60.375 C 87.275 59.453,87.037 59.402,90.398 61.237 C 91.951 62.084,92.668 62.383,95.000 63.152 C 103.507 65.957,108.341 65.074,108.332 60.715 C 108.328 58.783,106.285 56.500,104.560 56.500 C 104.090 56.500,101.158 56.008,98.917 55.553 C 97.601 55.286,94.833 54.239,94.833 54.008 C 94.833 53.482,100.950 51.667,102.724 51.667 C 108.881 51.667,110.615 44.552,104.750 43.353 C 103.090 43.013,102.516 42.980,101.310 43.155 C 98.066 43.625,97.297 43.806,95.250 44.582 C 94.608 44.825,93.882 45.087,93.636 45.164 C 93.127 45.323,89.794 46.957,88.667 47.601 C 87.267 48.400,87.247 48.400,86.517 47.619 C 84.141 45.082,81.973 40.828,81.244 37.278 C 80.889 35.548,80.786 35.676,82.866 35.281 C 89.402 34.041,92.833 31.835,92.833 28.871 C 92.833 26.003,89.226 24.035,86.357 25.337 C 85.957 25.518,85.556 25.667,85.465 25.667 C 85.375 25.667,85.064 25.768,84.775 25.893 C 81.183 27.437,80.754 27.086,82.075 23.685 C 83.407 20.252,83.584 19.258,83.076 18.036 C 82.757 17.269,82.007 16.167,81.804 16.167 C 81.721 16.167,81.430 16.001,81.156 15.799 C 80.261 15.137,77.976 15.247,76.923 16.003 C 75.543 16.994,74.263 19.330,73.592 22.083 C 73.435 22.725,73.191 23.700,73.049 24.250 C 72.906 24.800,72.742 25.625,72.684 26.083 L 72.578 26.917 71.244 26.891 C 69.842 26.864,67.600 26.129,65.760 25.094 C 65.342 24.859,64.663 24.477,64.252 24.246 C 63.840 24.014,63.008 23.470,62.402 23.037 C 61.797 22.604,61.186 22.175,61.045 22.083 C 59.783 21.262,59.628 20.661,60.421 19.667 C 60.809 19.180,62.966 14.568,63.305 13.500 C 63.494 12.904,63.810 11.779,64.006 11.000 C 64.202 10.221,64.438 9.288,64.531 8.927 C 65.881 3.655,64.317 -0.201,60.924 0.036 C 58.011 0.239,57.064 1.523,56.340 6.250 C 55.800 9.778,55.156 11.963,54.356 12.985 L 54.041 13.387 53.791 12.819 C 53.138 11.336,52.429 8.724,52.076 6.500 C 51.573 3.329,51.525 3.089,51.273 2.492 C 50.326 0.246,47.319 -0.753,45.402 0.542 M55.798 28.696 C 56.047 28.950,56.344 29.159,56.458 29.162 C 56.573 29.165,56.667 29.234,56.667 29.317 C 56.667 29.450,58.160 30.531,58.830 30.883 C 58.969 30.956,59.383 31.196,59.750 31.416 C 62.850 33.278,66.272 34.547,70.380 35.357 L 72.343 35.745 72.487 36.331 C 72.566 36.653,72.793 37.629,72.991 38.500 C 73.769 41.924,74.028 42.749,75.130 45.333 C 76.066 47.526,77.808 50.319,79.295 52.015 C 80.160 53.000,80.622 53.911,80.432 54.252 C 80.279 54.524,78.831 56.507,78.357 57.092 C 78.279 57.189,77.998 57.601,77.733 58.009 C 77.468 58.416,77.163 58.843,77.056 58.956 C 76.790 59.239,74.743 63.405,74.414 64.333 C 73.433 67.109,72.742 69.761,72.586 71.353 L 72.478 72.456 71.614 72.558 C 69.339 72.825,65.631 73.802,63.917 74.585 C 62.375 75.290,61.191 75.882,60.750 76.170 C 60.475 76.349,60.137 76.549,60.000 76.613 C 59.732 76.738,58.694 77.453,57.083 78.624 C 53.840 80.982,54.332 80.947,51.833 78.990 C 50.089 77.624,47.903 76.250,46.500 75.638 C 45.931 75.390,45.197 75.073,44.500 74.775 C 43.686 74.427,41.608 73.754,40.417 73.451 C 37.919 72.818,36.511 72.500,36.204 72.500 C 35.830 72.500,35.672 72.091,35.669 71.111 C 35.666 70.289,35.191 68.324,34.312 65.500 C 33.885 64.127,32.088 60.250,31.430 59.284 C 31.194 58.936,31.000 58.617,31.000 58.574 C 31.000 58.445,29.831 56.819,28.910 55.667 C 27.592 54.017,27.586 53.996,28.197 53.144 C 28.484 52.744,28.820 52.357,28.943 52.283 C 29.066 52.210,29.167 52.041,29.167 51.908 C 29.167 51.775,29.230 51.667,29.308 51.667 C 29.726 51.667,32.377 47.188,33.572 44.464 C 34.317 42.766,35.408 38.726,35.757 36.375 C 35.841 35.810,35.931 35.667,36.199 35.667 C 36.510 35.667,37.911 35.351,40.417 34.715 C 41.933 34.331,44.918 33.311,45.660 32.923 C 45.893 32.802,46.458 32.520,46.917 32.296 C 47.969 31.784,48.373 31.549,49.366 30.875 C 49.804 30.577,50.201 30.333,50.246 30.333 C 50.292 30.333,50.786 29.977,51.344 29.542 C 51.902 29.106,52.746 28.474,53.219 28.137 L 54.080 27.523 54.713 27.879 C 55.062 28.075,55.550 28.443,55.798 28.696 M369.583 36.840 C 362.945 36.950,362.351 37.002,358.833 37.780 C 358.146 37.932,357.288 38.194,356.927 38.361 C 356.566 38.529,356.204 38.667,356.123 38.667 C 356.041 38.667,355.474 38.960,354.862 39.318 C 352.337 40.795,350.685 43.166,349.916 46.417 C 348.904 50.692,348.848 73.680,349.840 77.750 C 351.133 83.061,353.896 85.692,359.500 86.949 C 364.013 87.961,383.553 88.357,387.917 87.525 C 394.926 86.188,398.148 83.244,399.659 76.798 C 400.192 74.525,400.189 49.931,399.656 48.000 C 399.466 47.313,399.188 46.300,399.038 45.750 C 397.825 41.300,394.647 38.462,389.583 37.307 C 386.976 36.712,382.924 36.618,369.583 36.840 M315.333 37.782 C 310.331 38.019,308.669 38.161,308.091 38.403 C 307.744 38.548,307.359 38.667,307.236 38.667 C 305.906 38.667,301.975 41.530,301.098 43.137 C 301.014 43.291,300.895 43.454,300.834 43.500 C 300.773 43.546,300.515 44.033,300.261 44.583 C 298.502 48.386,298.323 50.215,298.387 63.750 C 298.450 77.048,298.618 78.387,300.686 82.009 C 304.134 88.048,310.749 88.895,335.750 86.499 C 337.583 86.324,339.822 86.134,340.724 86.079 C 341.626 86.023,342.470 85.937,342.599 85.888 C 342.794 85.813,342.833 84.788,342.833 79.707 L 342.833 73.616 340.958 73.722 C 339.072 73.829,335.605 74.101,329.750 74.601 C 328.008 74.750,324.514 74.910,321.986 74.956 C 316.645 75.053,316.265 74.978,315.387 73.652 L 314.917 72.941 314.869 63.012 C 314.818 52.267,314.824 52.182,315.713 51.384 C 316.712 50.486,316.479 50.500,330.170 50.500 L 342.833 50.500 342.833 44.189 L 342.833 37.879 342.060 37.773 C 341.312 37.670,317.522 37.679,315.333 37.782 M381.788 49.860 C 383.702 50.820,383.754 51.157,383.732 62.417 C 383.711 73.629,383.726 73.530,381.834 74.642 L 381.083 75.083 374.833 75.047 C 367.254 75.003,366.606 74.864,365.772 73.106 C 365.364 72.247,365.360 52.932,365.766 51.714 C 366.200 50.415,367.032 49.786,368.750 49.458 C 370.298 49.162,381.058 49.494,381.788 49.860 " stroke="none" fill="#040404" fill-rule="evenodd"></path></g></svg>