<svg width="1920" height="520" viewBox="0 0 1920 520" fill="none" xmlns="http://www.w3.org/2000/svg">
<path d="M1644.86 354.309H1535.21C1524.07 354.309 1518.08 348.741 1518.08 338.032V250.651C1518.08 239.515 1524.07 234.375 1535.21 234.375H1645.29V172.266C1645.29 172.266 1592.61 166.697 1521.08 166.697C1461.54 166.697 1431.98 183.403 1431.98 246.368V341.887C1431.98 405.281 1461.54 421.986 1521.08 421.986C1592.18 421.986 1645.29 412.563 1645.29 412.563L1644.86 354.309Z" fill="white"/>
<path d="M1828.48 165.412H1759.09C1699.55 165.412 1669.99 182.974 1669.99 245.94V341.459C1669.99 404.853 1699.55 422.415 1759.09 422.415H1828.48C1888.44 422.415 1918 404.853 1918 341.459V245.94C1918 182.974 1888.44 165.412 1828.48 165.412ZM1814.34 358.164H1773.22C1762.09 358.164 1756.09 352.596 1756.09 341.459V245.511C1756.09 234.375 1762.09 229.235 1773.22 229.235H1814.34C1825.91 229.235 1831.9 234.375 1831.9 245.511V341.459C1831.9 352.596 1825.91 358.164 1814.34 358.164Z" fill="white"/>
<path d="M853.987 120.009H765.322V270.355H763.18C746.903 244.226 668.518 134.144 665.091 129.004C659.951 121.722 660.379 120.009 641.532 120.009H570V419.845H659.094V269.927H662.092L755.47 405.709C763.608 417.703 767.892 419.845 782.884 419.845H853.987V120.009Z" fill="#049CFC"/>
<path d="M1113.87 356.451H993.933C981.511 356.451 976.8 353.024 976.8 340.174V325.61H1124.15C1128.43 325.61 1128.43 324.754 1128.43 319.614V248.938C1128.43 205.676 1098.88 168.839 1039.34 168.839H981.083C921.116 168.839 890.704 205.676 890.704 248.938V343.172C890.704 406.566 920.259 421.986 979.798 421.986C1050.9 421.986 1112.58 412.563 1112.58 412.563L1113.87 356.451ZM1048.76 276.78L976.8 278.065V254.078C976.8 235.66 985.366 230.52 1000.79 230.52H1025.63C1041.05 230.52 1048.76 236.088 1048.76 254.078V276.78Z" fill="#049CFC"/>
<path d="M1399.14 169.267H1313.04V346.171C1293.77 349.597 1280.06 353.024 1268.07 353.024H1262.07C1250.51 353.024 1244.94 348.312 1244.94 337.176V169.267H1158.41V344.029C1158.41 406.566 1187.54 421.986 1244.94 422.415H1253.93C1271.5 422.415 1294.2 413.848 1313.04 403.996V419.845H1399.14V169.267Z" fill="#049CFC"/>
<path fill-rule="evenodd" clip-rule="evenodd" d="M238.763 153.262C195.646 183.503 104.411 188.555 74.7637 158.438C74.7637 158.438 69.3519 149.497 74.7637 138.673C80.1754 127.85 95.8683 128.178 95.8683 128.178C138.528 146.909 181.289 143.535 214.995 119.894C249.57 95.6439 269.115 61.968 269.115 24.5564C269.115 24.5564 269.586 13.4723 284.645 11.8506C299.704 10.2289 303.822 22.4457 303.822 22.4457C314.056 60.0856 281.012 123.629 238.763 153.262Z" fill="white"/>
<path fill-rule="evenodd" clip-rule="evenodd" d="M286.264 162.92C239.421 138.853 192.453 60.4723 205.295 20.2095C205.295 20.2095 210.686 11.256 222.784 11.0034C234.883 10.7507 241.902 24.79 241.902 24.79C245.198 71.2641 268.101 107.531 304.721 126.346C342.284 145.646 381.188 147.256 414.293 129.83C414.293 129.83 424.32 125.084 432.77 137.654C441.219 150.224 432.326 159.558 432.326 159.558C403.786 186.147 332.165 186.504 286.264 162.92Z" fill="white"/>
<path fill-rule="evenodd" clip-rule="evenodd" d="M270.237 377.738C313.354 347.497 404.589 342.445 434.236 372.562C434.236 372.562 439.648 381.503 434.236 392.327C428.825 403.15 413.132 402.822 413.132 402.822C370.472 384.091 327.711 387.465 294.005 411.106C259.43 435.356 239.885 469.032 239.885 506.444C239.885 506.444 239.414 517.528 224.355 519.149C209.296 520.771 205.178 508.554 205.178 508.554C194.944 470.914 227.988 407.371 270.237 377.738Z" fill="white"/>
<path fill-rule="evenodd" clip-rule="evenodd" d="M222.736 368.08C269.579 392.147 316.547 470.528 303.705 510.791C303.705 510.791 298.314 519.744 286.216 519.997C274.117 520.249 267.098 506.21 267.098 506.21C263.802 459.736 240.899 423.469 204.279 404.654C166.716 385.354 127.812 383.744 94.7072 401.17C94.7072 401.17 84.6796 405.916 76.2304 393.346C67.7812 380.776 76.6736 371.442 76.6736 371.442C105.214 344.853 176.835 344.496 222.736 368.08Z" fill="white"/>
<path fill-rule="evenodd" clip-rule="evenodd" d="M142.262 281.237C172.503 324.354 177.555 415.589 147.438 445.236C147.438 445.236 138.497 450.648 127.673 445.236C116.85 439.825 117.178 424.132 117.178 424.132C135.909 381.472 132.535 338.711 108.894 305.005C84.6439 270.43 50.968 250.885 13.5564 250.885C13.5564 250.885 2.47233 250.414 0.850623 235.355C-0.771082 220.296 11.4457 216.178 11.4457 216.178C49.0856 205.944 112.629 238.988 142.262 281.237Z" fill="white"/>
<path fill-rule="evenodd" clip-rule="evenodd" d="M151.92 233.736C127.853 280.579 49.4723 327.547 9.20949 314.705C9.20949 314.705 0.256001 309.314 0.00336908 297.216C-0.249263 285.117 13.79 278.098 13.79 278.098C60.2641 274.802 96.5314 251.899 115.346 215.279C134.646 177.716 136.256 138.812 118.83 105.707C118.83 105.707 114.084 95.6796 126.654 87.2304C139.224 78.7812 148.558 87.6736 148.558 87.6736C175.147 116.214 175.504 187.835 151.92 233.736Z" fill="white"/>
<path fill-rule="evenodd" clip-rule="evenodd" d="M366.738 249.763C336.497 206.646 331.445 115.411 361.562 85.7636C361.562 85.7636 370.503 80.3519 381.327 85.7636C392.15 91.1754 391.822 106.868 391.822 106.868C373.091 149.528 376.465 192.289 400.106 225.995C424.356 260.57 458.032 280.115 495.444 280.115C495.444 280.115 506.528 280.586 508.149 295.645C509.771 310.704 497.554 314.822 497.554 314.822C459.914 325.056 396.371 292.012 366.738 249.763Z" fill="white"/>
<path fill-rule="evenodd" clip-rule="evenodd" d="M357.08 297.264C381.147 250.421 459.528 203.453 499.791 216.295C499.791 216.295 508.744 221.686 508.997 233.784C509.249 245.883 495.21 252.902 495.21 252.902C448.736 256.198 412.469 279.101 393.654 315.721C374.354 353.284 372.744 392.187 390.17 425.293C390.17 425.293 394.916 435.32 382.346 443.77C369.776 452.219 360.442 443.326 360.442 443.326C333.853 414.786 333.496 343.165 357.08 297.264Z" fill="white"/>
<path d="M309.586 265.261C309.586 296.059 285.146 321.025 254.998 321.025C224.85 321.025 200.41 296.059 200.41 265.261C200.41 234.463 224.85 209.496 254.998 209.496C285.146 209.496 309.586 234.463 309.586 265.261Z" fill="#049CFC"/>
</svg>
